<?xml version="1.0" encoding="UTF-8"?>
<svg xmlns="http://www.w3.org/2000/svg" xmlns:xlink="http://www.w3.org/1999/xlink" width="33pt" height="36pt" viewBox="0 0 33 36" version="1.1">
<g id="surface1">
<path style=" stroke:none;fill-rule:nonzero;fill:rgb(0%,0%,0%);fill-opacity:1;" d="M 16.507812 9.957031 C 11.824219 9.957031 8.042969 13.582031 8.042969 18.074219 C 8.042969 22.566406 11.824219 26.1875 16.507812 26.1875 C 21.191406 26.1875 24.972656 22.566406 24.972656 18.074219 C 24.972656 13.582031 21.191406 9.957031 16.507812 9.957031 Z M 16.507812 23.351562 C 13.480469 23.351562 11.003906 20.984375 11.003906 18.074219 C 11.003906 15.164062 13.472656 12.796875 16.507812 12.796875 C 19.542969 12.796875 22.011719 15.164062 22.011719 18.074219 C 22.011719 20.984375 19.535156 23.351562 16.507812 23.351562 Z M 27.292969 9.628906 C 27.292969 10.679688 26.40625 11.519531 25.316406 11.519531 C 24.21875 11.519531 23.339844 10.671875 23.339844 9.628906 C 23.339844 8.582031 24.226562 7.734375 25.316406 7.734375 C 26.40625 7.734375 27.292969 8.582031 27.292969 9.628906 Z M 32.898438 11.546875 C 32.769531 9.011719 32.167969 6.765625 30.230469 4.914062 C 28.300781 3.0625 25.957031 2.484375 23.3125 2.355469 C 20.589844 2.210938 12.421875 2.210938 9.695312 2.355469 C 7.058594 2.480469 4.714844 3.058594 2.777344 4.910156 C 0.839844 6.757812 0.242188 9.003906 0.109375 11.539062 C -0.046875 14.152344 -0.046875 21.984375 0.109375 24.601562 C 0.234375 27.132812 0.839844 29.378906 2.777344 31.234375 C 4.714844 33.082031 7.046875 33.664062 9.695312 33.789062 C 12.421875 33.933594 20.589844 33.933594 23.3125 33.789062 C 25.957031 33.667969 28.300781 33.085938 30.230469 31.234375 C 32.160156 29.378906 32.765625 27.136719 32.898438 24.601562 C 33.050781 21.984375 33.050781 14.160156 32.898438 11.546875 Z M 29.375 27.402344 C 28.800781 28.789062 27.6875 29.855469 26.238281 30.410156 C 24.0625 31.238281 18.90625 31.046875 16.507812 31.046875 C 14.105469 31.046875 8.941406 31.234375 6.777344 30.410156 C 5.332031 29.859375 4.222656 28.792969 3.636719 27.402344 C 2.777344 25.320312 2.972656 20.375 2.972656 18.074219 C 2.972656 15.769531 2.785156 10.820312 3.636719 8.746094 C 4.210938 7.359375 5.328125 6.292969 6.777344 5.734375 C 8.949219 4.910156 14.105469 5.101562 16.507812 5.101562 C 18.90625 5.101562 24.074219 4.914062 26.238281 5.734375 C 27.683594 6.289062 28.792969 7.351562 29.375 8.746094 C 30.238281 10.828125 30.039062 15.769531 30.039062 18.074219 C 30.039062 20.375 30.238281 25.328125 29.375 27.402344 Z M 29.375 27.402344 "/>
</g>
</svg>
