<?xml version="1.0" encoding="UTF-8"?>
<svg xmlns="http://www.w3.org/2000/svg" xmlns:xlink="http://www.w3.org/1999/xlink" width="39pt" height="37pt" viewBox="0 0 39 37" version="1.1">
<g id="surface1">
<path style=" stroke:none;fill-rule:nonzero;fill:rgb(0%,0%,0%);fill-opacity:1;" d="M 36.863281 8.804688 C 36.445312 7.128906 35.203125 5.804688 33.628906 5.355469 C 30.773438 4.542969 19.316406 4.542969 19.316406 4.542969 C 19.316406 4.542969 7.859375 4.542969 5.003906 5.355469 C 3.425781 5.804688 2.1875 7.128906 1.769531 8.804688 C 1 11.847656 1 18.195312 1 18.195312 C 1 18.195312 1 24.546875 1.769531 27.589844 C 2.1875 29.265625 3.425781 30.53125 5.003906 30.984375 C 7.859375 31.796875 19.316406 31.796875 19.316406 31.796875 C 19.316406 31.796875 30.773438 31.796875 33.628906 30.984375 C 35.203125 30.53125 36.445312 29.265625 36.863281 27.589844 C 37.632812 24.546875 37.632812 18.195312 37.632812 18.195312 C 37.632812 18.195312 37.632812 11.847656 36.863281 8.804688 Z M 15.570312 23.964844 L 15.570312 12.433594 L 25.144531 18.195312 Z M 15.570312 23.964844 "/>
</g>
</svg>
